# xmcd CD database file
#
# Track frame offsets:
#	150
#	17625
#	37575
#
# Disc length: 733 seconds
#
# Revision: 5
# Processed by: cddbd v1.5PL3 Copyright (c) Steve Scherf et al.
# Submitted via: CDex 1.51
#
DISCID=1202db03
DTITLE=CRAZY LOVE - 新大阪ラプソディ
DYEAR=2004
DGENRE=JPop
TTITLE0=新大阪ラプソディ
TTITLE1=Magazine Love
TTITLE2=Inspiration (Backing Track)
EXTD=YEAR: 2004
EXTT0=
EXTT1=
EXTT2=
PLAYORDER=
